<!--<svg width="42" height="42" xmlns="http://www.w3.org/2000/svg">-->
<!-- <g>-->
<!--  <path fill="#070707" d="m6.717392,13.773912l5.6,0c2.8,0 4.7,1.9 4.7,4.7c0,2.8 -2,4.7 -4.9,4.7l-2.5,0l0,4.3l-2.9,0l0,-13.7zm2.9,2.2l0,4.9l1.9,0c1.6,0 2.6,-0.9 2.6,-2.4c0,-1.6 -0.9,-2.4 -2.6,-2.4l-1.9,0l0,-0.1zm8.9,11.5l2.7,0l0,-5.7c0,-1.4 0.8,-2.3 2.2,-2.3c0.4,0 0.8,0.1 1,0.2l0,-2.4c-0.2,-0.1 -0.5,-0.1 -0.8,-0.1c-1.2,0 -2.1,0.7 -2.4,2l-0.1,0l0,-1.9l-2.7,0l0,10.2l0.1,0zm11.7,0.1c-3.1,0 -5,-2 -5,-5.3c0,-3.3 2,-5.3 5,-5.3s5,2 5,5.3c0,3.4 -1.9,5.3 -5,5.3zm0,-2.1c1.4,0 2.2,-1.1 2.2,-3.2c0,-2 -0.8,-3.2 -2.2,-3.2c-1.4,0 -2.2,1.2 -2.2,3.2c0,2.1 0.8,3.2 2.2,3.2z" class="st0" id="Ant-Design-Pro"/>-->
<!-- </g>-->
<!--</svg>-->
<svg xmlns="http://www.w3.org/2000/svg" width="16" height="16" fill="currentColor" class="bi bi-box-fill" viewBox="0 0 16 16">
  <path fill-rule="evenodd" d="M15.528 2.973a.75.75 0 0 1 .472.696v8.662a.75.75 0 0 1-.472.696l-7.25 2.9a.75.75 0 0 1-.557 0l-7.25-2.9A.75.75 0 0 1 0 12.331V3.669a.75.75 0 0 1 .471-.696L7.443.184l.004-.001.274-.11a.75.75 0 0 1 .558 0l.274.11.004.001 6.971 2.789Zm-1.374.527L8 5.962 1.846 3.5 1 3.839v.4l6.5 2.6v7.922l.5.2.5-.2V6.84l6.5-2.6v-.4l-.846-.339Z"/>
</svg>
